<svg width="219" height="219" viewBox="0 0 219 219" fill="none" xmlns="http://www.w3.org/2000/svg">
<g clip-path="url(#clip0)">
<rect x="145.581" y="-11" width="55.3185" height="191.487" rx="27.6592" transform="rotate(54 145.581 -11)" fill="#0D55FF"/>
<path opacity="0.95" d="M11.38 132.88C-0.980102 123.9 -3.72013 106.6 5.26004 94.2401C14.2402 81.8799 31.54 79.1399 43.9001 88.1201L154.056 168.153C166.416 177.133 169.156 194.433 160.176 206.793C151.196 219.153 133.896 221.893 121.536 212.913L11.38 132.88Z" fill="#0041DA"/>
<circle cx="152.828" cy="112.285" r="23.404" fill="#0033E7"/>
<path d="M218.785 112.285C218.785 120.511 212.116 127.179 203.891 127.179C195.666 127.179 188.998 120.511 188.998 112.285C188.998 104.06 195.666 97.3917 203.891 97.3917C212.116 97.3917 218.785 104.06 218.785 112.285Z" fill="#0D55FF"/>
</g>
<defs>
<clipPath id="clip0">
<rect width="219" height="219" fill="white"/>
</clipPath>
</defs>
</svg>
